<svg width="81" height="67" viewBox="0 0 81 67" fill="none" xmlns="http://www.w3.org/2000/svg">
<path d="M55.1367 32.0503C58.0012 32.2631 66.9814 33.6148 73.9099 42.1684C74.3775 42.7401 75.038 43.0949 75.7695 43.166C75.957 43.1843 76.1435 43.1832 76.3252 43.1643C76.8492 43.1097 77.3403 42.9053 77.7335 42.5783C77.8955 42.4538 78.036 42.318 78.1618 42.1614C78.9667 41.1662 78.9665 39.7169 78.1579 38.7115C69.2351 27.712 57.659 26.6342 54.7181 26.5423C54.1955 25.3429 53.386 24.2457 52.2976 23.3603L52.164 23.2569C51.1287 22.4594 50.044 21.5691 48.7522 20.4542C45.9437 18.0325 40.3271 14.018 34.2504 14.3345C33.8766 14.356 33.5727 14.5661 33.4159 14.8888C33.2602 15.2124 33.2905 15.596 33.4971 15.8895L38.44 22.9205L30.5608 19.5209C30.2238 19.3766 29.8329 19.429 29.5481 19.6642C29.264 19.8974 29.1327 20.2698 29.208 20.6304C30.1669 25.2012 32.6874 29.3397 36.3053 32.2829C36.5958 32.5192 36.8913 32.7482 37.2226 32.987L40.5433 35.2393C40.9076 35.6845 41.319 36.1019 41.7835 36.4727C42.8262 37.3075 44.0349 37.8607 45.3217 38.1163C45.9991 40.9268 49.4215 52.1376 62.0411 58.6435C62.523 58.889 63.0524 58.9782 63.565 58.9248C64.2689 58.8514 64.9379 58.5092 65.4038 57.9333C65.5357 57.7702 65.6418 57.6012 65.7054 57.4607C66.0433 56.8157 66.1092 56.076 65.8904 55.3775C65.6702 54.6744 65.1888 54.1002 64.5306 53.7578C54.6787 48.6883 51.5525 40.1236 50.7782 37.3798C51.9239 36.8104 52.9366 35.9961 53.7068 34.9767C54.3893 34.0729 54.863 33.0784 55.1367 32.0503ZM76.6274 39.953C76.854 40.2348 76.8557 40.6398 76.6322 40.9171C76.6031 40.9531 76.575 40.9803 76.5062 41.034C76.3542 41.1613 76.1546 41.2219 75.959 41.2006C75.7519 41.1805 75.5655 41.0797 75.4358 40.9206C68.1294 31.9003 58.8876 30.3454 55.4079 30.0868C55.4196 29.5702 55.384 29.0551 55.3011 28.5461C58.7728 28.7648 68.7626 30.2577 76.6274 39.953ZM37.5453 30.7499C34.7904 28.5087 32.7406 25.501 31.6457 22.1387L39.7898 25.6528C38.6999 27.5065 38.3664 29.6511 38.8125 31.683L38.3493 31.3689C38.0723 31.169 37.8062 30.9621 37.5453 30.7499ZM63.6288 55.5125C63.8138 55.6085 63.9496 55.7708 64.0119 55.9689C64.0726 56.1623 64.0541 56.3649 63.9407 56.5841C63.9288 56.6096 63.9119 56.6424 63.8743 56.689C63.6498 56.9654 63.2541 57.0464 62.9367 56.8856C51.8063 51.1474 48.303 41.5825 47.3909 38.2609C47.5505 38.253 47.7095 38.2504 47.8699 38.2337C47.9302 38.2274 47.9913 38.2201 48.0514 38.2128C48.3463 38.1759 48.6373 38.1218 48.9244 38.0548C49.8484 41.2121 53.2934 50.1946 63.6288 55.5125ZM47.8065 36.2529C46.0489 36.4653 44.3513 36.0014 43.0098 34.9285C42.6144 34.613 42.2644 34.2607 41.9653 33.877C40.0935 31.5002 40.1172 28.1948 42.026 25.8349C42.0626 25.7898 42.0799 25.7372 42.1072 25.6882C42.1245 25.6575 42.1519 25.6362 42.1662 25.6031C42.171 25.5919 42.169 25.5799 42.1734 25.5686C42.2089 25.4768 42.2253 25.3822 42.2323 25.286C42.2342 25.2603 42.2445 25.2351 42.2443 25.2095C42.2436 25.0919 42.221 24.9757 42.1791 24.8651C42.1626 24.8215 42.1326 24.7859 42.1102 24.745C42.0802 24.6904 42.058 24.6322 42.0173 24.5833L36.2432 16.3681C41.1347 16.9236 45.6237 20.3596 47.4679 21.9511C48.7892 23.0901 49.9004 24.0029 50.9724 24.8276L51.0576 24.8934C53.7649 27.0958 54.2387 31.0008 52.1361 33.7832C51.0999 35.1563 49.5624 36.0331 47.8065 36.2529Z" fill="#F2F2F2"/>
<path d="M44.5992 27.8855C44.0083 28.616 43.7367 29.5342 43.8343 30.4702C43.9319 31.4063 44.387 32.2488 45.1159 32.8417C45.868 33.4535 46.7987 33.7016 47.6929 33.6084C48.588 33.5151 49.4475 33.0804 50.0582 32.3264C50.6491 31.5959 50.9207 30.6777 50.8231 29.7416C50.7256 28.8056 50.2704 27.9631 49.5415 27.3702C48.0353 26.1458 45.8187 26.3788 44.5992 27.8855ZM48.5287 31.0821C47.9917 31.746 47.0161 31.8457 46.3559 31.3087C45.6946 30.7707 45.5927 29.7925 46.1287 29.1298C46.3968 28.7984 46.7742 28.6078 47.1682 28.5667C47.5613 28.5257 47.9709 28.6343 48.3015 28.9032C48.9628 29.4412 49.0648 30.4194 48.5287 31.0821Z" fill="#F2F2F2"/>
<path d="M7.89979 23.9399L11.3216 26.9181V50.858L2.53898 54.4089L7.89979 23.9399ZM13.6028 26.9181L17.0246 23.9399L20.4464 43.298L22.3854 54.2944L13.6028 50.7435V26.9181ZM16.1121 18.3272L16.6824 21.3054L12.5762 24.8563L8.47009 21.3054L9.04039 18.3272H16.1121ZM12.4622 63.8016L3.3374 56.4707L12.4622 52.8053L21.587 56.4707L20.9026 57.0434L12.4622 63.8016ZM25.1228 55.0962L22.8416 43.0689L18.2792 16.9527C18.1652 16.3799 17.7089 16.0363 17.1386 16.0363H13.7168V11.34C20.3323 9.85088 19.4198 0.114545 12.5762 0C9.38257 0 6.87325 2.51999 6.87325 5.72725C6.87325 6.41452 7.32949 6.8727 8.01385 6.8727C8.69821 6.8727 9.15445 6.41452 9.15445 5.72725C9.15445 3.77999 10.6372 2.2909 12.5762 2.2909C14.5153 2.2909 15.998 3.77999 15.998 5.72725C15.998 7.67452 14.5153 9.16361 12.5762 9.16361C11.8919 9.16361 11.4356 9.62179 11.4356 10.3091V16.0363H8.01385C7.44355 16.0363 6.98731 16.3799 6.87325 16.9527L0.0296703 55.898C-0.0843894 56.3562 0.14373 56.6998 0.485909 57.0434L11.8919 66.207C12.3481 66.5507 12.9184 66.5507 13.2606 66.207L23.526 57.9598C23.8681 57.6162 24.8947 56.9289 25.0087 56.5853C25.0087 56.1271 25.2369 55.5544 25.1228 55.0962Z" fill="#F2F2F2"/>
</svg>
