<svg width="69" height="70" viewBox="0 0 69 70" fill="none" xmlns="http://www.w3.org/2000/svg">
<path d="M64.4093 0C63.569 0 62.7444 0.23371 62.0266 0.67629L51.8858 6.9221C47.1404 2.46242 40.9793 0 34.5 0C20.3862 0 8.90323 11.6494 8.90323 25.9677C8.90323 28.3003 9.22486 30.6013 9.82582 32.8289L3.3899 36.7929C1.29876 38.0811 0 40.4216 0 42.9032C0 44.7706 1.49797 46.2903 3.33871 46.2903C5.17945 46.2903 6.67742 44.7706 6.67742 42.9032V42.4392L12.4723 39.1853C17.0697 47.0547 25.481 51.9355 34.5 51.9355C35.5428 51.9355 36.5689 51.8644 37.5794 51.7413C38.0212 51.8553 38.4753 51.9355 38.9516 51.9355H53.4194C55.2601 51.9355 56.7581 53.4552 56.7581 55.3226C56.7581 57.19 55.2601 58.7097 53.4194 58.7097H22.2581C19.1898 58.7097 16.6935 61.2421 16.6935 64.3548C16.6935 67.4676 19.1898 70 22.2581 70H54.5323V67.7419H22.2581C20.4173 67.7419 18.9194 66.2223 18.9194 64.3548C18.9194 62.4874 20.4173 60.9677 22.2581 60.9677H53.4194C56.4876 60.9677 58.9839 58.4353 58.9839 55.3226C58.9839 52.2098 56.4876 49.6774 53.4194 49.6774H44.9201C53.8534 45.6208 60.0968 36.5231 60.0968 25.9677C60.0968 21.8084 59.103 17.7156 57.2333 14.0474L66.6317 8.76919C68.093 7.94952 69 6.38806 69 4.65726C69 2.08984 66.94 0 64.4093 0ZM56.7581 27.2718L57.7764 27.8679C57.6796 29.0918 57.4881 30.2852 57.2155 31.4503L53.4194 29.2273L56.7581 27.2718ZM51.1936 30.5313L56.5755 33.6835C56.2072 34.7663 55.7687 35.8152 55.2556 36.8211L47.8548 32.4856L51.1936 30.5313ZM41.1774 48.6794V3.24597C42.3248 3.59258 43.4355 4.04306 44.5161 4.56355V47.3584C43.4422 47.8766 42.3326 48.3282 41.1774 48.6794ZM46.7419 44.8711V40.9602L50.528 43.1776C49.6633 44.0074 48.744 44.7785 47.7625 45.4684L46.7419 44.8711ZM46.7419 38.3521V34.4411L54.1383 38.7732C53.5284 39.7329 52.8518 40.6406 52.1161 41.4987L46.7419 38.3521ZM46.7419 7.06435L47.758 6.46935C48.4948 6.98645 49.2048 7.54758 49.8859 8.15387L46.7419 10.0902V7.06435ZM12.2419 24.6637L11.2236 24.0676C11.3205 22.8437 11.5119 21.6503 11.7845 20.4852L15.5806 22.7082L12.2419 24.6637ZM17.8065 21.4042L12.4245 18.2519C12.7928 17.1692 13.2313 16.1203 13.7444 15.1144L21.1452 19.4498L17.8065 21.4042ZM22.2581 7.06435V10.9753L18.472 8.7579C19.3367 7.92806 20.256 7.15694 21.2375 6.4671L22.2581 7.06435ZM22.2581 13.5834V17.4944L14.8617 13.1623C15.4716 12.2026 16.1482 11.2948 16.8839 10.4368L22.2581 13.5834ZM22.2581 44.8711L21.2398 45.4673C20.2582 44.7819 19.33 44.0176 18.4586 43.1855L22.2581 40.9602V44.8711ZM11.2069 27.8781L22.2581 21.4053V25.1706L11.8046 31.6095C11.5096 30.3856 11.3071 29.1392 11.2069 27.8781ZM4.45161 41.1092V42.9032C4.45161 43.5253 3.95192 44.0323 3.33871 44.0323C2.7255 44.0323 2.22581 43.5253 2.22581 42.9032C2.22581 41.2063 3.1139 39.6042 4.54398 38.7235L22.2581 27.8126V31.1082L4.45161 41.1092ZM22.2581 33.6903V38.3532L16.8627 41.5134C15.9568 40.4589 15.1399 39.314 14.421 38.0913L22.2581 33.6903ZM30.0484 49.2348V7.90323H27.8226V48.6692C26.6763 48.3203 25.56 47.8868 24.4839 47.3674V4.57823C25.5578 4.05887 26.6674 3.60726 27.8226 3.25613V5.64516H30.0484V2.70177C31.1357 2.48839 32.253 2.36984 33.3871 2.31565V42.9032H35.6129V2.31113C36.7403 2.36532 37.8576 2.47484 38.9516 2.68935V49.2337C38.5421 49.3139 38.1236 49.3692 37.7063 49.4268C36.481 48.9255 35.6129 47.7106 35.6129 46.2903V45.1613H33.3871V46.2903C33.3871 47.565 33.8222 48.7302 34.5278 49.6763C34.5178 49.6763 34.5089 49.6774 34.5 49.6774C32.9909 49.6774 31.5018 49.5239 30.0484 49.2348ZM56.5956 18.2406L54.4087 19.521L55.5216 21.4764L57.2255 20.4784C57.5004 21.6537 57.6907 22.8505 57.7864 24.0597L46.7419 30.5302V26.6192L53.7666 22.505L52.6537 20.5495L46.7419 24.0123V19.9398L55.2868 15.1415C55.7943 16.1429 56.235 17.1771 56.5956 18.2406ZM65.5545 6.79339L46.7419 17.3589V12.7332L63.1806 2.60694C63.5512 2.37887 63.9752 2.25806 64.4093 2.25806C65.7125 2.25806 66.7742 3.33516 66.7742 4.69452C66.7742 5.56726 66.3068 6.37113 65.5545 6.79339Z" fill="#F2F2F2"/>
</svg>
