<svg width="73" height="73" viewBox="0 0 73 73" fill="none" xmlns="http://www.w3.org/2000/svg">
<path fill-rule="evenodd" clip-rule="evenodd" d="M3.67395 29.2971C5.13316 22.4828 8.86224 16.2363 14.0505 11.5312C38.0464 -10.2097 75.9047 11.6123 69.4193 43.2502C67.8791 50.7135 63.7446 57.5278 57.8267 62.3952C33.3445 82.757 -3.05462 60.286 3.67395 29.2971ZM0.917669 44.3048C2.53901 51.687 6.5113 58.4201 12.186 63.5309C38.3706 87.2187 79.6338 63.0441 72.0945 28.7292C70.7164 22.5639 67.7169 16.8042 63.5014 12.0991C38.5328 -15.5638 -7.0269 8.04292 0.917669 44.3048Z" fill="#F2F2F2"/>
<path fill-rule="evenodd" clip-rule="evenodd" d="M59.1238 54.9319C59.1238 55.7431 59.7723 56.4732 60.6641 56.4732C61.4748 56.4732 62.2044 55.8242 62.2044 54.9319C62.2044 54.1207 61.5558 53.3906 60.6641 53.3906C59.7723 53.3906 59.1238 54.1207 59.1238 54.9319ZM53.0438 48.8477C53.0438 49.6589 53.6923 50.389 54.5841 50.389C55.3947 50.389 56.1243 49.74 56.1243 48.8477C56.1243 48.0365 55.4758 47.3064 54.5841 47.3064C53.6923 47.3064 53.0438 48.0365 53.0438 48.8477ZM59.1238 48.8477C59.1238 49.6589 59.7723 50.389 60.6641 50.389C61.4748 50.389 62.2044 49.74 62.2044 48.8477C62.2044 48.0365 61.5558 47.3064 60.6641 47.3064C59.7723 47.3064 59.1238 48.0365 59.1238 48.8477ZM65.2038 48.8477C65.2038 49.6589 65.8524 50.389 66.7441 50.389C67.5548 50.389 68.2844 49.74 68.2844 48.8477C68.2844 48.0365 67.6359 47.3064 66.7441 47.3064C65.8524 47.3064 65.2038 48.0365 65.2038 48.8477ZM46.9637 42.7635C46.9637 43.5747 47.6123 44.3048 48.504 44.3048C49.3147 44.3048 50.0443 43.6558 50.0443 42.7635C50.0443 41.9523 49.3958 41.2222 48.504 41.2222C47.6123 41.2222 46.9637 41.9523 46.9637 42.7635ZM53.0438 42.7635C53.0438 43.5747 53.6923 44.3048 54.5841 44.3048C55.3947 44.3048 56.1243 43.6558 56.1243 42.7635C56.1243 41.9523 55.4758 41.2222 54.5841 41.2222C53.6923 41.2222 53.0438 41.9523 53.0438 42.7635ZM59.1238 42.7635C59.1238 43.5747 59.7723 44.3048 60.6641 44.3048C61.4748 44.3048 62.2044 43.6558 62.2044 42.7635C62.2044 41.9523 61.5558 41.2222 60.6641 41.2222C59.7723 41.2222 59.1238 41.9523 59.1238 42.7635ZM65.2038 42.7635C65.2038 43.5747 65.8524 44.3048 66.7441 44.3048C67.5548 44.3048 68.2844 43.6558 68.2844 42.7635C68.2844 41.9523 67.6359 41.2222 66.7441 41.2222C65.8524 41.2222 65.2038 41.9523 65.2038 42.7635ZM40.8837 36.6793C40.8837 37.4905 41.5323 38.2206 42.424 38.2206C43.3157 38.2206 43.9643 37.5716 43.9643 36.6793C43.9643 35.8681 43.3157 35.138 42.424 35.138C41.5323 35.138 40.8837 35.8681 40.8837 36.6793ZM46.9637 36.6793C46.9637 37.4905 47.6123 38.2206 48.504 38.2206C49.3147 38.2206 50.0443 37.5716 50.0443 36.6793C50.0443 35.8681 49.3958 35.138 48.504 35.138C47.6123 35.138 46.9637 35.8681 46.9637 36.6793ZM53.0438 36.6793C53.0438 37.4905 53.6923 38.2206 54.5841 38.2206C55.3947 38.2206 56.1243 37.5716 56.1243 36.6793C56.1243 35.8681 55.4758 35.138 54.5841 35.138C53.6923 35.138 53.0438 35.8681 53.0438 36.6793ZM59.1238 36.6793C59.1238 37.4905 59.7723 38.2206 60.6641 38.2206C61.4748 38.2206 62.2044 37.5716 62.2044 36.6793C62.2044 35.8681 61.5558 35.138 60.6641 35.138C59.7723 35.138 59.1238 35.8681 59.1238 36.6793ZM65.2038 36.6793C65.2038 37.4905 65.8524 38.2206 66.7441 38.2206C67.5548 38.2206 68.2844 37.5716 68.2844 36.6793C68.2844 35.8681 67.6359 35.138 66.7441 35.138C65.8524 35.138 65.2038 35.8681 65.2038 36.6793ZM34.8037 30.5951C34.8037 31.4063 35.4522 32.1364 36.344 32.1364C37.1546 32.1364 37.8842 31.4874 37.8842 30.5951C37.8842 29.7838 37.2357 29.0537 36.344 29.0537C35.4522 29.0537 34.8037 29.7838 34.8037 30.5951ZM53.0438 30.5951C53.0438 31.4063 53.6923 32.1364 54.5841 32.1364C55.3947 32.1364 56.1243 31.4874 56.1243 30.5951C56.1243 29.7838 55.4758 29.0537 54.5841 29.0537C54.3409 29.0537 54.0976 29.1349 53.9355 29.216C53.6923 29.3782 53.5302 29.6216 53.287 29.7838C53.1248 30.0272 53.0438 30.2706 53.0438 30.5951ZM59.1238 30.5951C59.1238 31.4063 59.7723 32.1364 60.6641 32.1364C61.4748 32.1364 62.2044 31.4874 62.2044 30.5951C62.2044 29.7838 61.5558 29.0537 60.6641 29.0537C59.7723 29.0537 59.1238 29.7838 59.1238 30.5951ZM65.2038 30.5951C65.2038 31.4063 65.8524 32.1364 66.7441 32.1364C67.5548 32.1364 68.2844 31.4874 68.2844 30.5951C68.2844 29.7838 67.6359 29.0537 66.7441 29.0537C65.8524 29.0537 65.2038 29.7838 65.2038 30.5951ZM28.7237 24.5109C28.7237 25.3221 29.3722 26.0522 30.2639 26.0522C31.1557 26.0522 31.8042 25.4032 31.8042 24.5109C31.8042 23.6996 31.1557 22.9695 30.2639 22.9695C29.3722 22.9695 28.7237 23.6996 28.7237 24.5109ZM34.8037 24.5109C34.8037 25.3221 35.4522 26.0522 36.344 26.0522C37.1546 26.0522 37.8842 25.4032 37.8842 24.5109C37.8842 23.6996 37.2357 22.9695 36.344 22.9695C35.4522 22.9695 34.8037 23.6996 34.8037 24.5109ZM59.1238 24.5109C59.1238 25.3221 59.7723 26.0522 60.6641 26.0522C61.4748 26.0522 62.2044 25.4032 62.2044 24.5109C62.2044 23.6996 61.5558 22.9695 60.6641 22.9695C59.7723 22.9695 59.1238 23.6996 59.1238 24.5109ZM65.2038 24.5109C65.2038 25.3221 65.8524 26.0522 66.7441 26.0522C67.5548 26.0522 68.2844 25.4032 68.2844 24.5109C68.2844 23.6996 67.6359 22.9695 66.7441 22.9695C65.8524 22.9695 65.2038 23.6996 65.2038 24.5109ZM22.6436 18.4267C22.6436 19.2379 23.2922 19.968 24.1839 19.968C24.9946 19.968 25.7242 19.319 25.7242 18.4267C25.7242 17.6154 25.0756 16.8853 24.1839 16.8853C23.2922 16.8853 22.6436 17.6154 22.6436 18.4267ZM28.7237 18.4267C28.7237 19.2379 29.3722 19.968 30.2639 19.968C31.1557 19.968 31.8042 19.319 31.8042 18.4267C31.8042 17.6154 31.1557 16.8853 30.2639 16.8853C29.3722 16.8853 28.7237 17.6154 28.7237 18.4267ZM34.8037 18.4267C34.8037 19.2379 35.4522 19.968 36.344 19.968C37.1546 19.968 37.8842 19.319 37.8842 18.4267C37.8842 17.6154 37.2357 16.8853 36.344 16.8853C35.4522 16.8853 34.8037 17.6154 34.8037 18.4267ZM40.8837 18.4267C40.8837 19.2379 41.5323 19.968 42.424 19.968C42.7483 19.968 42.9915 19.8869 43.2347 19.7246C43.3968 19.4813 43.64 19.319 43.8021 19.0756C43.8832 18.9134 43.9643 18.67 43.9643 18.4267C43.9643 17.6154 43.3157 16.8853 42.424 16.8853C41.5323 16.8853 40.8837 17.6154 40.8837 18.4267ZM59.6102 19.4813C59.8534 19.7246 60.2588 19.8869 60.6641 19.8869C61.4748 19.8869 62.2044 19.2379 62.2044 18.3455C62.2044 17.5343 61.5558 16.8042 60.6641 16.8042C60.5019 16.8042 60.3398 16.8042 60.2588 16.8853C60.0155 17.7777 59.8534 18.5889 59.6102 19.4813ZM16.5636 12.3425C16.5636 13.1537 17.2121 13.8838 18.1039 13.8838C18.9145 13.8838 19.6441 13.2348 19.6441 12.3425C19.6441 11.4501 18.9956 10.8011 18.1039 10.8011C17.2121 10.8011 16.5636 11.5312 16.5636 12.3425ZM22.6436 12.3425C22.6436 13.1537 23.2922 13.8838 24.1839 13.8838C24.9946 13.8838 25.7242 13.2348 25.7242 12.3425C25.7242 11.4501 25.0756 10.8011 24.1839 10.8011C23.2922 10.8011 22.6436 11.5312 22.6436 12.3425ZM28.7237 12.3425C28.7237 13.1537 29.3722 13.8838 30.2639 13.8838C31.1557 13.8838 31.8042 13.2348 31.8042 12.3425C31.8042 11.4501 31.1557 10.8011 30.2639 10.8011C29.3722 10.8011 28.7237 11.5312 28.7237 12.3425ZM34.8037 12.3425C34.8037 13.1537 35.4522 13.8838 36.344 13.8838C37.1546 13.8838 37.8842 13.2348 37.8842 12.3425C37.8842 11.4501 37.2357 10.8011 36.344 10.8011C35.4522 10.8011 34.8037 11.5312 34.8037 12.3425ZM40.8837 12.3425C40.8837 13.1537 41.5323 13.8838 42.424 13.8838C43.3157 13.8838 43.9643 13.2348 43.9643 12.3425C43.9643 11.4501 43.3157 10.8011 42.424 10.8011C41.5323 10.8011 40.8837 11.5312 40.8837 12.3425ZM46.9637 12.3425C46.9637 13.1537 47.6123 13.8838 48.504 13.8838C49.3147 13.8838 50.0443 13.2348 50.0443 12.3425C50.0443 11.4501 49.3958 10.8011 48.504 10.8011C47.6123 10.8011 46.9637 11.5312 46.9637 12.3425ZM53.0438 12.3425C53.0438 12.7481 53.2059 13.1537 53.4491 13.3971C54.3409 13.1537 55.2326 12.9103 55.9622 12.7481C55.9622 12.5858 56.0433 12.5047 56.0433 12.3425C56.0433 11.5312 55.3947 10.8011 54.503 10.8011C53.6923 10.8011 53.0438 11.5312 53.0438 12.3425ZM22.6436 6.25825C22.6436 7.06948 23.2922 7.79958 24.1839 7.79958C24.9946 7.79958 25.7242 7.1506 25.7242 6.25825C25.7242 5.3659 25.0756 4.71692 24.1839 4.71692C23.2922 4.71692 22.6436 5.44702 22.6436 6.25825ZM28.7237 6.25825C28.7237 7.06948 29.3722 7.79958 30.2639 7.79958C31.1557 7.79958 31.8042 7.1506 31.8042 6.25825C31.8042 5.3659 31.1557 4.71692 30.2639 4.71692C29.3722 4.71692 28.7237 5.44702 28.7237 6.25825ZM34.8037 6.25825C34.8037 7.06948 35.4522 7.79958 36.344 7.79958C37.1546 7.79958 37.8842 7.1506 37.8842 6.25825C37.8842 5.3659 37.2357 4.71692 36.344 4.71692C35.4522 4.71692 34.8037 5.44702 34.8037 6.25825ZM40.8837 6.25825C40.8837 7.06948 41.5323 7.79958 42.424 7.79958C43.3157 7.79958 43.9643 7.1506 43.9643 6.25825C43.9643 5.3659 43.3157 4.71692 42.424 4.71692C41.5323 4.71692 40.8837 5.44702 40.8837 6.25825ZM46.9637 6.25825C46.9637 7.06948 47.6123 7.79958 48.504 7.79958C49.3147 7.79958 50.0443 7.1506 50.0443 6.25825C50.0443 5.3659 49.3958 4.71692 48.504 4.71692C47.6123 4.71692 46.9637 5.44702 46.9637 6.25825Z" fill="#F2F2F2"/>
<path fill-rule="evenodd" clip-rule="evenodd" d="M39.9109 33.1098C40.9648 22.8884 48.5851 15.1817 58.7995 14.2082C57.8267 24.3486 50.1254 32.0552 39.9109 33.1098ZM62.1233 10.8822C47.4501 11.1256 36.9114 21.7527 36.5872 36.4359C51.2603 36.1114 61.8801 25.5654 62.1233 10.8822Z" fill="#F2F2F2"/>
<path fill-rule="evenodd" clip-rule="evenodd" d="M59.6103 61.584H61.5559V59.5559L13.4831 11.4501L11.4564 11.369V13.3971L59.6103 61.584Z" fill="#F2F2F2"/>
<path fill-rule="evenodd" clip-rule="evenodd" d="M4.72785 48.1175C5.29532 49.0098 5.94385 49.9833 6.67346 50.8756C11.2943 56.4731 16.6447 58.8257 21.5898 59.6369C22.3194 59.718 23.049 59.7991 23.7786 59.8803H25.8053C25.8864 59.8803 26.616 59.7991 27.0213 59.7991C29.6965 59.5558 33.3445 58.1767 35.9387 55.8241C39.1003 52.9037 40.2352 49.821 40.7216 46.8195C40.7216 46.495 40.8027 46.0894 40.8027 45.7649V44.4669C40.8027 44.0613 40.6406 43.169 40.5595 42.9256C39.5056 37.8149 35.2901 35.0567 31.48 35.0567C29.048 35.0567 26.2106 36.2735 25.1567 39.6807C25.0757 40.0052 24.9946 40.4108 24.9946 40.7353V41.4654C24.9946 41.7088 25.2378 42.52 25.2378 42.6822C25.8864 44.6292 27.6698 45.5215 29.129 45.5215C30.6693 45.5215 32.2907 44.3858 32.2907 42.52C32.2907 41.7899 31.9664 40.8164 30.9125 40.8164C30.1829 40.8164 29.6154 41.3032 29.6154 42.1144C29.6154 42.1955 29.6154 42.4389 29.6154 42.4389C29.6154 42.7634 29.2101 42.8445 29.048 42.8445C28.2373 42.8445 27.5888 42.0333 27.5888 41.0598C27.5888 39.194 29.2912 37.5715 31.48 37.5715C34.7227 37.5715 37.8843 40.4108 38.2085 44.3858V45.6027C38.1275 46.7384 37.8843 47.9552 37.3979 49.1721C37.2357 49.6588 36.9115 50.2267 36.6683 50.7134C33.9931 55.3374 29.4533 57.041 25.8053 57.2032H23.8597C23.7786 57.2032 22.9679 57.1221 22.5626 57.041C17.8607 56.392 12.7535 54.2828 8.538 48.9287C7.97053 48.1986 7.48413 47.4685 6.99773 46.7384C4.88998 43.3312 3.26864 38.1394 2.94437 33.272V32.2174C2.78224 33.5965 2.70117 34.9756 2.70117 36.4358C2.70117 40.573 3.43078 44.4669 4.72785 48.1175Z" fill="#F2F2F2"/>
</svg>
