<svg width="25" height="24" viewBox="0 0 25 24" fill="none" xmlns="http://www.w3.org/2000/svg">
<path d="M7.55254 0C3.87398 0 0.881226 2.99067 0.881226 6.66667V17.3333C0.881226 21.0093 3.87398 24 7.55254 24H18.2266C21.9052 24 24.8979 21.0093 24.8979 17.3333V6.66667C24.8979 2.99067 21.9052 0 18.2266 0H7.55254ZM7.55254 2.66667H18.2266C20.4335 2.66667 22.2294 4.46133 22.2294 6.66667V17.3333C22.2294 19.5387 20.4335 21.3333 18.2266 21.3333H7.55254C5.34567 21.3333 3.54975 19.5387 3.54975 17.3333V6.66667C3.54975 4.46133 5.34567 2.66667 7.55254 2.66667ZM19.5609 4C19.207 4 18.8677 4.14048 18.6174 4.39052C18.3672 4.64057 18.2266 4.97971 18.2266 5.33333C18.2266 5.68696 18.3672 6.02609 18.6174 6.27614C18.8677 6.52619 19.207 6.66667 19.5609 6.66667C19.9148 6.66667 20.2541 6.52619 20.5044 6.27614C20.7546 6.02609 20.8952 5.68696 20.8952 5.33333C20.8952 4.97971 20.7546 4.64057 20.5044 4.39052C20.2541 4.14048 19.9148 4 19.5609 4ZM12.8896 5.33333C9.21103 5.33333 6.21828 8.324 6.21828 12C6.21828 15.676 9.21103 18.6667 12.8896 18.6667C16.5681 18.6667 19.5609 15.676 19.5609 12C19.5609 8.324 16.5681 5.33333 12.8896 5.33333ZM12.8896 8C15.0965 8 16.8924 9.79467 16.8924 12C16.8924 14.2053 15.0965 16 12.8896 16C10.6827 16 8.8868 14.2053 8.8868 12C8.8868 9.79467 10.6827 8 12.8896 8Z" fill="#3D3D3C"/>
</svg>
