<svg width="62" height="63" viewBox="0 0 62 63" fill="none" xmlns="http://www.w3.org/2000/svg">
<path d="M57.912 44.4445L42.552 34.0403L57.911 23.6362C60.472 21.9016 62 18.9996 62 15.874C62 13.9179 61.409 12.0421 60.29 10.4499L59.913 9.91437C57.785 6.88732 54.33 5.08065 50.669 5.08065C46.226 5.08065 42.168 7.73579 40.33 11.846C38.784 15.3009 38 18.9782 38 22.7745C38 24.5751 37.501 26.3584 36.589 27.8978L23 11.6875V0H0V63H23V56.3941L36.59 40.1838C37.501 41.7233 38 43.5066 38 45.3061C38 49.1024 38.784 52.7788 40.33 56.2346C42.168 60.3449 46.227 63 50.669 63C54.329 63 57.784 61.1933 59.911 58.1673L60.289 57.6298C61.408 56.0385 61.999 54.1627 61.999 52.2067C62 49.0811 60.472 46.179 57.912 44.4445ZM40 22.7745C40 19.2699 40.724 15.876 42.151 12.6874C43.665 9.30063 47.009 7.1129 50.669 7.1129C53.685 7.1129 56.531 8.60153 58.284 11.0961L58.661 11.6316C59.538 12.8774 60 14.3437 60 15.874C60 18.3188 58.805 20.5888 56.802 21.9453L40.75 32.8189L40.67 32.7651L37.942 29.5104C39.267 27.5361 40 25.1675 40 22.7745ZM36 36.16L33.414 33.5323H29.541L13.282 8.26418L13.705 7.83435C14.664 6.85785 16.383 6.92695 17.265 7.97966L38.64 33.4764L36 36.16ZM27.478 34.0403L23 41.0008V36.16L18.414 31.5L22.906 26.9355L27.478 34.0403ZM21 60.9677H2V32.5161H5V30.4839H2V2.03226H21V9.30165L18.787 6.66174C17.945 5.65679 16.717 5.08065 15.418 5.08065C14.235 5.08065 13.125 5.54806 12.29 6.39755L10.718 7.99389L21 23.9725V25.9987L16.586 30.4839H13V32.5161H16.586L21 37.0013V60.9677ZM23 44.7127L28.887 35.5645H32.586L35.244 38.2654L35.397 38.4727L23 53.2604V44.7127ZM58.663 56.448L58.285 56.9855C56.532 59.4791 53.685 60.9677 50.669 60.9677C47.008 60.9677 43.665 58.78 42.15 55.3933C40.724 52.2046 40 48.8108 40 45.3061C40 42.7374 39.165 40.1909 37.648 38.1363L37.32 37.6923L40.127 34.84L56.802 46.1353C58.805 47.4918 60 49.7619 60 52.2067C60 53.737 59.538 55.2032 58.663 56.448Z" fill="#F2F2F2"/>
<path d="M55.692 47.8261L42.491 38.8832C42.127 38.6373 41.646 38.6586 41.306 38.9401C40.966 39.2195 40.845 39.693 41.007 40.1056C41.666 41.7791 42 43.5289 42 45.3061C42 48.5191 42.664 51.6305 43.971 54.5519C45.162 57.2152 47.792 58.9355 50.67 58.9355C53.042 58.9355 55.28 57.7659 56.657 55.8058L57.038 55.2642C57.667 54.3669 58 53.3102 58 52.2066C58 50.4426 57.137 48.8047 55.692 47.8261ZM55.41 54.0834L55.03 54.624C54.027 56.0507 52.397 56.9032 50.67 56.9032C48.574 56.9032 46.66 55.6503 45.792 53.7095C44.603 51.0544 44 48.2265 44 45.3061C44 44.2372 43.895 43.1773 43.686 42.1358L54.583 49.518C55.47 50.1185 56 51.1235 56 52.2066C56 52.8844 55.796 53.5347 55.41 54.0834Z" fill="#F2F2F2"/>
<path d="M41.937 29.3671C42.13 29.3671 42.323 29.3102 42.492 29.1964L55.693 20.2535C57.137 19.2759 58 17.6379 58 15.8739C58 14.7704 57.667 13.7137 57.037 12.8144L56.658 12.2758C55.28 10.3147 53.042 9.14514 50.67 9.14514C47.792 9.14514 45.162 10.8654 43.972 13.5287C42.664 16.4501 42 19.5615 42 22.7745C42 24.5517 41.666 26.3015 41.008 27.974C40.845 28.3866 40.966 28.8601 41.307 29.1395C41.489 29.2909 41.712 29.3671 41.937 29.3671ZM44 22.7745C44 19.8541 44.603 17.0262 45.792 14.3701C46.66 12.4303 48.574 11.1774 50.67 11.1774C52.397 11.1774 54.027 12.0299 55.03 13.4576L55.409 13.9951C55.796 14.5459 56 15.1962 56 15.8739C56 16.9561 55.47 17.9621 54.583 18.5626L43.686 25.9448C43.895 24.9033 44 23.8434 44 22.7745Z" fill="#F2F2F2"/>
<path d="M32 29.4678H30V31.5H32V29.4678Z" fill="#F2F2F2"/>
<path d="M11 30.4839H7V32.5161H11V30.4839Z" fill="#F2F2F2"/>
</svg>
