<svg width="30" height="29" viewBox="0 0 30 29" fill="none" xmlns="http://www.w3.org/2000/svg">
<path d="M0.806885 14.5002C0.806885 20.4378 4.37976 25.5386 9.49241 27.7812C9.4516 26.7687 9.48516 25.5532 9.74498 24.4515C10.024 23.2744 11.612 16.5504 11.612 16.5504C11.612 16.5504 11.1485 15.6245 11.1485 14.2562C11.1485 12.1074 12.3948 10.5025 13.9469 10.5025C15.2667 10.5025 15.9044 11.4932 15.9044 12.6795C15.9044 14.0053 15.0582 15.9885 14.623 17.8254C14.2594 19.3635 15.3947 20.6181 16.9132 20.6181C19.6624 20.6181 21.514 17.0895 21.514 12.9087C21.514 9.73075 19.3721 7.35207 15.4762 7.35207C11.0747 7.35207 8.33263 10.6322 8.33263 14.2962C8.33263 15.5595 8.70535 16.4504 9.28916 17.1402C9.55759 17.4571 9.59489 17.5845 9.49774 17.9484C9.42814 18.2152 9.2683 18.8575 9.2021 19.112C9.10551 19.4793 8.80772 19.6106 8.47557 19.475C6.44824 18.6479 5.50407 16.4293 5.50407 13.9353C5.50407 9.81627 8.98036 4.87721 15.8745 4.87721C21.4144 4.87721 25.0606 8.88329 25.0606 13.1836C25.0606 18.8718 21.896 23.1213 17.2313 23.1213C15.6647 23.1213 14.1912 22.2751 13.6864 21.3139C13.6864 21.3139 12.844 24.6548 12.6656 25.2999C12.3579 26.4179 11.7558 27.5353 11.2052 28.4062C12.5102 28.7911 13.8887 29.0008 15.3175 29.0008C23.3303 29.0008 29.8271 22.5088 29.8271 14.5002C29.8271 6.49204 23.3303 0 15.3175 0C7.304 0 0.806885 6.49204 0.806885 14.5002Z" fill="#3D3D3C"/>
</svg>
