<svg width="79" height="80" viewBox="0 0 79 80" fill="none" xmlns="http://www.w3.org/2000/svg">
<path d="M27.598 32.0013C26.9853 28.9613 24.3166 26.6666 21.1277 26.6666C17.9387 26.6666 15.27 28.9613 14.6573 32.0013C10.993 31.8733 7.92287 34.9466 7.92287 38.6666C7.92287 41.2013 9.37275 43.4613 11.5185 44.5773C10.8992 45.6013 10.5638 46.7813 10.5638 48C10.5638 51.676 13.5257 54.6666 17.1662 54.6666C18.6003 54.6666 19.9894 54.1826 21.1277 53.308C22.2659 54.1826 23.6551 54.6666 25.0891 54.6666C28.7297 54.6666 31.6915 51.676 31.6915 48C31.6915 46.7813 31.3561 45.6013 30.7368 44.5773C32.8826 43.4613 34.3325 41.2013 34.3325 38.6666C34.3325 34.9466 31.2663 31.884 27.598 32.0013ZM28.2781 42.6053C27.7604 42.6786 27.3352 43.052 27.1913 43.5586C27.0474 44.0666 27.2138 44.6106 27.6139 44.9493C28.5263 45.72 29.0505 46.832 29.0505 48C29.0505 50.2053 27.2732 52 25.0891 52C23.9482 52 22.8945 51.508 22.122 50.616C21.8711 50.3266 21.5093 50.16 21.1277 50.16C20.746 50.16 20.3842 50.3266 20.1333 50.616C19.3609 51.508 18.3071 52 17.1662 52C14.9821 52 13.2048 50.2053 13.2048 48C13.2048 46.832 13.729 45.72 14.6415 44.9493C15.0429 44.6106 15.208 44.0666 15.064 43.5586C14.9201 43.052 14.4936 42.6786 13.9773 42.6053C12.0309 42.3306 10.5638 40.6386 10.5638 38.6666C10.5638 36.4613 12.3412 34.6666 14.5253 34.6666C14.8224 34.6666 15.1406 34.7146 15.5275 34.8173C15.9329 34.9253 16.3647 34.8333 16.6909 34.568C17.0183 34.304 17.2006 33.8973 17.1847 33.476C17.1807 33.396 17.1702 33.3333 17.1662 33.3333C17.1662 31.128 18.9436 29.3333 21.1277 29.3333C23.3117 29.3333 25.0891 31.128 25.0917 33.2506C25.0851 33.2946 25.0719 33.4306 25.0706 33.476C25.0534 33.8973 25.237 34.304 25.5645 34.568C25.8906 34.832 26.3224 34.924 26.7278 34.8173C27.1147 34.7146 27.4329 34.6666 27.7301 34.6666C29.9141 34.6666 31.6915 36.4613 31.6915 38.6666C31.6915 40.6386 30.2244 42.3306 28.2781 42.6053Z" fill="#F2F2F2"/>
<path d="M21.1277 37.3334C18.9436 37.3334 17.1662 39.128 17.1662 41.3334C17.1662 43.5387 18.9436 45.3334 21.1277 45.3334C23.3117 45.3334 25.0891 43.5387 25.0891 41.3334C25.0891 39.128 23.3117 37.3334 21.1277 37.3334ZM21.1277 42.6667C20.4001 42.6667 19.8072 42.0694 19.8072 41.3334C19.8072 40.5974 20.4001 40 21.1277 40C21.8553 40 22.4481 40.5974 22.4481 41.3334C22.4481 42.0694 21.8553 42.6667 21.1277 42.6667Z" fill="#F2F2F2"/>
<path d="M43.5758 46.6666H40.9349V49.3333H43.5758V46.6666Z" fill="#F2F2F2"/>
<path d="M43.5758 52H40.9349V54.6667H43.5758V52Z" fill="#F2F2F2"/>
<path d="M43.5758 57.3334H40.9349V60H43.5758V57.3334Z" fill="#F2F2F2"/>
<path d="M43.5758 62.6666H40.9349V65.3333H43.5758V62.6666Z" fill="#F2F2F2"/>
<path d="M38.2939 62.6666H35.653V65.3333H38.2939V62.6666Z" fill="#F2F2F2"/>
<path d="M33.012 62.6666H30.371V65.3333H33.012V62.6666Z" fill="#F2F2F2"/>
<path d="M27.7301 62.6666H25.0891V65.3333H27.7301V62.6666Z" fill="#F2F2F2"/>
<path d="M22.4482 62.6666H19.8072V65.3333H22.4482V62.6666Z" fill="#F2F2F2"/>
<path d="M22.4482 57.3334H19.8072V60H22.4482V57.3334Z" fill="#F2F2F2"/>
<path d="M77.5214 7.05733C75.5512 5.068 72.3425 5.068 70.3723 7.05733L67.6904 9.76533C64.5001 7.812 60.7751 6.66667 56.7806 6.66667V9.33333C60.0435 9.33333 63.107 10.1987 65.7704 11.704L65.0904 12.3907C63.4438 14.052 63.1929 16.5773 64.2955 18.5267L60.2376 22.624C56.4835 18.264 51.6783 14.8533 46.2155 12.812V8H47.5359C49.2552 8 50.7077 6.88133 51.2544 5.33333H56.7806V2.66667H51.2557C50.7091 1.11867 49.2565 0 47.5373 0H42.2553C40.5361 0 39.0835 1.11867 38.5369 2.66667H31.6915V1.33333C31.6915 0.596 31.0999 0 30.371 0H17.1662C16.4373 0 15.8458 0.596 15.8458 1.33333V6.66667C15.8458 7.404 16.4373 8 17.1662 8H22.4482V12.8107C9.35692 17.7027 0 30.4347 0 45.3333C0 64.4493 15.4021 80 34.3325 80C53.2629 80 68.6649 64.4493 68.6649 45.3333C68.6649 37.6133 66.1507 30.476 61.908 24.708L66.1639 20.4107C66.9378 20.8573 67.7974 21.1013 68.6649 21.1013C69.959 21.1013 71.2544 20.604 72.2395 19.6093L72.9195 18.9227C74.4103 21.612 75.2673 24.7053 75.2673 28V64H77.9083V28C77.9083 23.9667 76.774 20.2053 74.8395 16.984L77.5214 14.276C79.4929 12.2867 79.4929 9.04667 77.5214 7.05733ZM42.2553 2.66667H47.5373C48.2648 2.66667 48.8577 3.264 48.8577 4C48.8577 4.736 48.2648 5.33333 47.5373 5.33333H44.8963H42.2553C41.5278 5.33333 40.9349 4.736 40.9349 4C40.9349 3.264 41.5278 2.66667 42.2553 2.66667ZM18.4867 2.66667H29.0505V4V5.33333H23.7686H18.4867V2.66667ZM25.0891 11.948V8H30.371C31.0999 8 31.6915 7.404 31.6915 6.66667V5.33333H38.5197C38.5356 5.37867 38.5593 5.41867 38.5765 5.46267C38.6055 5.536 38.6385 5.60667 38.6716 5.67867C38.7402 5.828 38.8168 5.97067 38.9026 6.10933C38.9436 6.17467 38.9819 6.24 39.0255 6.30267C39.1364 6.46133 39.2592 6.60933 39.3912 6.74933C39.419 6.77867 39.4414 6.812 39.4705 6.84C39.6342 7.004 39.8125 7.15067 40.0026 7.284C40.0554 7.32133 40.1122 7.35067 40.1677 7.38533C40.3116 7.476 40.4595 7.55867 40.6153 7.63067C40.6879 7.664 40.7606 7.69333 40.8345 7.72267C40.989 7.78267 41.1488 7.832 41.3112 7.872C41.3838 7.88933 41.4538 7.91067 41.5278 7.92533C41.7641 7.97067 42.0058 8 42.2553 8H43.5758V11.948C43.5322 11.936 43.4873 11.928 43.4425 11.9147C42.0507 11.5267 40.6232 11.2253 39.1667 11.016C39.0109 10.9933 38.8538 10.976 38.6967 10.956C38.1434 10.884 37.5848 10.8267 37.0236 10.7827C36.8335 10.768 36.6446 10.7507 36.4558 10.7387C35.7533 10.696 35.0468 10.6667 34.3325 10.6667C33.6181 10.6667 32.9116 10.696 32.2078 10.74C32.0177 10.752 31.8288 10.7693 31.64 10.784C31.0788 10.828 30.5216 10.8853 29.967 10.9573C29.8098 10.9773 29.654 10.9947 29.4969 11.0173C28.0404 11.2253 26.6143 11.528 25.2212 11.916C25.1776 11.928 25.1327 11.936 25.0891 11.948ZM66.024 45.3333C66.024 62.9773 51.8064 77.3333 34.3325 77.3333C16.8586 77.3333 2.64096 62.9773 2.64096 45.3333C2.64096 31.216 11.7457 19.2133 24.3338 14.9747C26.7344 14.1693 29.2169 13.6587 31.7206 13.4507C31.7509 13.448 31.7813 13.4467 31.813 13.444C33.49 13.3093 35.1763 13.3093 36.8546 13.444C36.885 13.4467 36.9153 13.448 36.947 13.4507C39.4506 13.6587 41.9332 14.1693 44.3338 14.9747C49.8362 16.828 54.6692 20.1627 58.3705 24.512L41.3218 41.724L43.1889 43.6093L60.0158 26.6187C63.7897 31.8867 66.024 38.3493 66.024 45.3333ZM70.3723 17.724C69.4308 18.6747 67.8991 18.6747 66.9576 17.724C66.0161 16.7733 66.0161 15.2267 66.9576 14.276L68.0139 13.2093C69.2961 14.2053 70.4423 15.3627 71.4287 16.6573L70.3723 17.724ZM75.6542 12.3907L73.313 14.7547C72.3081 13.4773 71.1633 12.3227 69.8983 11.3067L72.2395 8.94267C72.7096 8.468 73.3289 8.23067 73.9469 8.23067C74.5648 8.23067 75.1841 8.468 75.6542 8.94267C76.5957 9.89333 76.5957 11.44 75.6542 12.3907Z" fill="#F2F2F2"/>
<path d="M77.9083 72H75.2673V74.6667H77.9083V72Z" fill="#F2F2F2"/>
<path d="M77.9083 77.3333H75.2673V79.9999H77.9083V77.3333Z" fill="#F2F2F2"/>
<path d="M77.9083 66.6666H75.2673V69.3333H77.9083V66.6666Z" fill="#F2F2F2"/>
</svg>
