<svg width="33" height="23" viewBox="0 0 33 23" fill="none" xmlns="http://www.w3.org/2000/svg">
<path d="M31.8048 3.73421C31.44 2.3488 30.3454 1.25505 28.9591 0.872233C26.4599 0.197754 16.4269 0.197754 16.4269 0.197754C16.4269 0.197754 6.39394 0.197754 3.87657 0.872233C2.4902 1.23682 1.41393 2.33057 1.03085 3.73421C0.374146 6.24984 0.374146 11.4998 0.374146 11.4998C0.374146 11.4998 0.374145 16.7498 1.04909 19.2655C1.41393 20.6509 2.50844 21.7446 3.89482 22.1274C6.39394 22.8019 16.4269 22.8019 16.4269 22.8019C16.4269 22.8019 26.4599 22.8019 28.9773 22.1274C30.3637 21.7629 31.44 20.6691 31.823 19.2655C32.4797 16.7498 32.4797 11.4998 32.4797 11.4998C32.4797 11.4998 32.4797 6.24984 31.8048 3.73421ZM13.1434 16.2759V6.7238L21.5346 11.4998L13.1434 16.2759Z" fill="#3D3D3C"/>
</svg>
